name processed_emg_signals						
nRows=87						
nColumns=7						
 						
endheader						
time	RGLTMED	RRF	RADDLONG	RBF	RTA	RGM
0.210752	0.039385444	0.08223453	0.486420921	0.070548862	0.092693826	0.121753706
0.211752	0.039459167	0.082633476	0.487346525	0.070771825	0.092884529	0.121834549
0.212752	0.039526734	0.083029922	0.488375381	0.070996031	0.09308023	0.121903516
0.213752	0.03958811	0.083423635	0.489507533	0.071221284	0.093280677	0.12196016
0.214752	0.039643271	0.083814387	0.490742952	0.07144739	0.093485618	0.122004059
0.215752	0.039692203	0.084201957	0.492081529	0.071674162	0.093694803	0.122034818
0.216752	0.0397349	0.084586129	0.493523082	0.071901417	0.093907982	0.122052065
0.217752	0.039771369	0.084966695	0.495067344	0.072128975	0.094124904	0.122055459
0.218752	0.039801626	0.085343451	0.496713967	0.072356666	0.09434532	0.122044687
0.219752	0.039825696	0.085716199	0.49846252	0.07258432	0.09456898	0.122019464
0.220752	0.039843616	0.086084745	0.500312484	0.072811776	0.094795634	0.121979536
0.221752	0.039855432	0.086448903	0.502263252	0.073038876	0.095025035	0.121924679
0.222752	0.039861198	0.086808489	0.504314128	0.073265469	0.095256933	0.121854702
0.223752	0.039860982	0.087163325	0.506464322	0.073491409	0.095491078	0.121769442
0.224752	0.039854857	0.087513238	0.508712953	0.073716554	0.095727223	0.12166877
0.225752	0.039842908	0.087858057	0.511059047	0.073940767	0.095965117	0.121552588
0.226752	0.039825228	0.088197617	0.513501532	0.074163916	0.096204512	0.121420831
0.227752	0.03980192	0.088531757	0.516039241	0.074385875	0.096445157	0.121273462
0.228752	0.039773093	0.088860317	0.518670911	0.07460652	0.096686805	0.12111048
0.229752	0.039738867	0.089183144	0.52139518	0.074825732	0.096929204	0.120931911
0.230752	0.039699369	0.089500085	0.52421059	0.075043397	0.097172104	0.120737814
0.231752	0.039654733	0.089810992	0.527115583	0.075259404	0.097415255	0.120528277
0.232752	0.0396051	0.09011572	0.530108508	0.075473644	0.097658407	0.120303418
0.233752	0.03955062	0.090414125	0.533187611	0.075686013	0.097901308	0.120063384
0.234752	0.039491448	0.090706068	0.536351048	0.075896408	0.098143709	0.119808349
0.235752	0.039427745	0.090991411	0.539596874	0.07610473	0.098385358	0.119538516
0.236752	0.039359677	0.091270019	0.542923055	0.076310882	0.098626006	0.119254112
0.237752	0.039287418	0.091541759	0.54632746	0.076514769	0.098865401	0.118955392
0.238752	0.039211144	0.091806501	0.549807871	0.076716297	0.099103294	0.118642634
0.239752	0.039131038	0.092064118	0.553361979	0.076915373	0.099339437	0.11831614
0.240752	0.039047284	0.092314482	0.556987387	0.077111908	0.09957358	0.117976237
0.241752	0.038960072	0.092557473	0.560681617	0.07730581	0.099805477	0.117623268
0.242752	0.038869594	0.092792967	0.564442107	0.07749699	0.100034882	0.117257602
0.243752	0.038776045	0.093020847	0.568266215	0.07768536	0.100261551	0.116879625
0.244752	0.038679623	0.093240998	0.572151227	0.077870831	0.100485241	0.116489742
0.245752	0.038580526	0.093453305	0.576094352	0.078053315	0.100705714	0.116088372
0.246752	0.038478954	0.093657658	0.580092734	0.078232722	0.100922731	0.115675956
0.247752	0.038375109	0.093853948	0.584143449	0.078408965	0.101136059	0.115252944
0.248752	0.038269192	0.094042072	0.588243514	0.078581955	0.101345466	0.114819803
0.249752	0.038161405	0.094221927	0.59238989	0.078751601	0.101550727	0.114377013
0.250752	0.038051949	0.094393414	0.596579482	0.078917814	0.101751618	0.113925063
0.251752	0.037941023	0.094556439	0.600809152	0.079080503	0.101947922	0.113464454
0.252752	0.037828828	0.094710909	0.605075717	0.079239577	0.102139427	0.112995695
0.253752	0.037715561	0.094856737	0.609375958	0.079394944	0.102325926	0.112519305
0.254752	0.037601417	0.09499384	0.613706624	0.079546511	0.102507219	0.112035809
0.255752	0.03748659	0.095122138	0.61806444	0.079694184	0.102683113	0.111545737
0.256752	0.037371271	0.095241556	0.622446107	0.079837869	0.102853421	0.111049626
0.257752	0.037255645	0.095352024	0.626848316	0.07997747	0.103017965	0.110548014
0.258752	0.037139899	0.095453477	0.63126775	0.080112893	0.103176577	0.110041444
0.259752	0.037024212	0.095545855	0.635701088	0.08024404	0.103329094	0.109530461
0.260752	0.03690876	0.095629102	0.640145018	0.080370816	0.103475368	0.109015609
0.261752	0.036793717	0.095703171	0.644596238	0.080493121	0.103615255	0.108497434
0.262752	0.03667925	0.095768019	0.649051467	0.08061086	0.103748627	0.107976479
0.263752	0.036565521	0.095823607	0.653507447	0.080723935	0.103875364	0.107453286
0.264752	0.036452689	0.095869906	0.657960955	0.080832248	0.103995358	0.106928395
0.265752	0.036340908	0.095906891	0.662408809	0.080935701	0.104108514	0.106402341
0.266752	0.036230324	0.095934546	0.666847873	0.081034199	0.104214748	0.105875657
0.267752	0.036121079	0.095952859	0.671275063	0.081127646	0.10431399	0.105348867
0.268752	0.03601331	0.095961828	0.67568736	0.081215946	0.104406183	0.104822493
0.269752	0.035907148	0.095961457	0.680081811	0.081299006	0.104491283	0.104297047
0.270752	0.035802717	0.095951757	0.68445554	0.081376735	0.10456926	0.103773038
0.271752	0.035700137	0.095932747	0.68880575	0.081449041	0.104640098	0.103250963
0.272752	0.035599518	0.095904456	0.693129736	0.081515838	0.104703794	0.102731314
0.273752	0.035500969	0.095866917	0.697424887	0.081577039	0.10476036	0.102214571
0.274752	0.035404589	0.095820174	0.701688695	0.081632563	0.104809822	0.101701207
0.275752	0.035310473	0.095764279	0.705918759	0.08168233	0.104852221	0.101191684
0.276752	0.035218708	0.095699292	0.710112792	0.081726265	0.104887612	0.100686454
0.277752	0.035129375	0.09562528	0.714268629	0.081764296	0.104916062	0.10018596
0.278752	0.035042551	0.095542321	0.718384229	0.081796356	0.104937654	0.09969063
0.279752	0.034958305	0.095450501	0.722457682	0.081822383	0.104952483	0.099200886
0.280752	0.0348767	0.095349912	0.726487213	0.081842319	0.10496066	0.098717134
0.281752	0.034797793	0.09524066	0.730471188	0.081856113	0.104962307	0.098239771
0.282752	0.034721635	0.095122856	0.734408117	0.081863717	0.104957559	0.097769181
0.283752	0.034648272	0.09499662	0.738296656	0.081865093	0.104946565	0.097305737
0.284752	0.034577745	0.094862082	0.742135613	0.081860207	0.104929483	0.096849798
0.285752	0.034510086	0.094719382	0.745923949	0.081849033	0.104906486	0.096401714
0.286752	0.034445326	0.094568666	0.749660781	0.08183155	0.104877757	0.095961819
0.287752	0.034383487	0.09441009	0.75334538	0.081807748	0.104843488	0.095530437
0.288752	0.034324588	0.094243821	0.756977179	0.081777623	0.104803883	0.095107879
0.289752	0.034268642	0.094070033	0.760555766	0.081741177	0.104759157	0.094694445
0.290752	0.034215658	0.093888906	0.764080887	0.081698424	0.10470953	0.094290421
0.291752	0.034165641	0.093700634	0.767552446	0.081649384	0.104655234	0.093896082
0.292752	0.034118589	0.093505415	0.7709705	0.081594087	0.104596508	0.093511691
0.293752	0.034074498	0.093303458	0.77433526	0.08153257	0.104533598	0.093137497
0.294752	0.03403336	0.093094978	0.777647087	0.081464883	0.104466757	0.092773741
0.295752	0.033995162	0.0928802	0.780906488	0.08139108	0.104396244	0.09242065
0.296752	0.033959888	0.092659354	0.784114113	0.081311228	0.104322322	0.092078438
